HIERARCHY
ROOT Hips
{
  OFFSET 267.745 86.9975 -272.335
  CHANNELS 6 Xposition Yposition Zposition Zrotation Xrotation Yrotation
  JOINT LeftUpLeg
  {
    OFFSET 8.64259 1.95398 -2.38835
    CHANNELS 3 Zrotation Xrotation Yrotation
    JOINT LeftLeg
    {
      OFFSET 43.7702 0 0
      CHANNELS 3 Zrotation Xrotation Yrotation
      JOINT LeftFoot
      {
        OFFSET 40.6238 0 0
        CHANNELS 3 Zrotation Xrotation Yrotation
        JOINT LeftToeBase
        {
          OFFSET 12.7242 0 0
          CHANNELS 3 Zrotation Xrotation Yrotation
          End Site
          {
            OFFSET 0 0 0
          }
        }
      }
    }
  }
  JOINT RightUpLeg
  {
    OFFSET -8.2249 1.95398 -2.59336
    CHANNELS 3 Zrotation Xrotation Yrotation
    JOINT RightLeg
    {
      OFFSET 43.5653 0 0
      CHANNELS 3 Zrotation Xrotation Yrotation
      JOINT RightFoot
      {
        OFFSET 40.6238 0 0
        CHANNELS 3 Zrotation Xrotation Yrotation
        JOINT RightToeBase
        {
          OFFSET 12.7242 0 0
          CHANNELS 3 Zrotation Xrotation Yrotation
          End Site
          {
            OFFSET 0 0 0
          }
        }
      }
    }
  }
  JOINT Spine
  {
    OFFSET 0.165834 0.87714 6.61349
    CHANNELS 3 Zrotation Xrotation Yrotation
    JOINT Spine1
    {
      OFFSET 7.38963 1.71661e-005 0
      CHANNELS 3 Zrotation Xrotation Yrotation
      JOINT Spine2
      {
        OFFSET 11.9445 1.14441e-005 0
        CHANNELS 3 Zrotation Xrotation Yrotation
        JOINT Spine3
        {
          OFFSET 14.7254 4.19617e-005 0
          CHANNELS 3 Zrotation Xrotation Yrotation
          JOINT Spine4
          {
            OFFSET 10.9679 0 0
            CHANNELS 3 Zrotation Xrotation Yrotation
            JOINT RightShoulder
            {
              OFFSET 2.46616 -1.6653 3.69651
              CHANNELS 3 Zrotation Xrotation Yrotation
              JOINT RightArm
              {
                OFFSET 13.0012 0 0
                CHANNELS 3 Zrotation Xrotation Yrotation
                JOINT RightForeArm
                {
                  OFFSET 28.7848 1.52588e-005 0
                  CHANNELS 3 Zrotation Xrotation Yrotation
                  JOINT RightHand
                  {
                    OFFSET 26.5688 1.52588e-005 0
                    CHANNELS 3 Zrotation Xrotation Yrotation
                    End Site
                    {
                      OFFSET 0 0 0
                    }
                  }
                }
              }
            }
            JOINT LeftShoulder
            {
              OFFSET 2.38034 -1.29275 -3.7523
              CHANNELS 3 Zrotation Xrotation Yrotation
              JOINT LeftArm
              {
                OFFSET 16.3182 6.10352e-005 0
                CHANNELS 3 Zrotation Xrotation Yrotation
                JOINT LeftForeArm
                {
                  OFFSET 27.0901 0 0
                  CHANNELS 3 Zrotation Xrotation Yrotation
                  JOINT LeftHand
                  {
                    OFFSET 24.5451 1.52588e-005 0
                    CHANNELS 3 Zrotation Xrotation Yrotation
                    End Site
                    {
                      OFFSET 0 0 0
                    }
                  }
                }
              }
            }
            JOINT Neck
            {
              OFFSET 5.0226 -0.0266342 0
              CHANNELS 3 Zrotation Xrotation Yrotation
              JOINT Head
              {
                OFFSET 6.69364 2.86102e-005 0
                CHANNELS 3 Zrotation Xrotation Yrotation
                End Site
                {
                  OFFSET 0 0 0
                }
              }
            }
          }
        }
      }
    }
  }
}
MOTION
Frames:	10
Frame Time:	0.0416667
-6.54552 96.8041 2.58232 112.971 -85.8111 113.159 -174.538 2.99138 91.7191 -13.6024 8.29774 2.46154 66.0067 3.66782 0.18385 29.6235 -0.142489 0.430984 174.671 2.83252 87.8718 -14.5443 -2.70413 0.184261 67.0385 -3.1508 1.4732 29.062 -0.038197 -0.361586 -0.285425 7.18879 -90.2128 12.4953 -0.668333 -0.347853 0.824479 -0.68299 -0.318109 -21.7112 -0.532888 -0.53263 -1.69861 -0.532888 -0.532635 101.751 -51.3606 -82.8044 29.4398 -5.89631 -6.16798 0.441121 -15.9543 -13.0225 -9.34478 -0.335666 -1.05244 -81.4906 -51.5291 91.4257 -34.571 -2.44431 -19.0956 0.0114646 37.6737 -1.61791 -1.60341 -0.0986869 -5.58626 11.1619 -1.0122 2.82565 -19.2199 -1.19078 -3.53681 
-6.59337 96.8239 2.58882 117.296 -85.9142 117.296 -174.589 2.56045 91.5821 -13.3216 7.07526 2.5367 66.3372 3.30844 -1.79298 28.7014 -0.21993 1.93819 174.512 2.53395 87.6678 -14.3825 -3.06773 0.212385 67.1056 -3.47677 1.03735 29.3492 -0.170591 0.346445 -0.280487 7.21907 -90.1859 12.4349 -0.645667 -0.297283 0.764107 -0.658124 -0.268578 -21.7717 -0.52648 -0.477584 -1.75905 -0.526474 -0.477591 101.827 -51.5051 -82.6869 29.2654 -6.32736 -6.27733 1.03997 -13.6213 -13.4637 -11.4919 -0.286548 -2.38529 -81.3374 -51.899 91.6771 -33.9082 -2.2003 -18.5439 0.179682 36.2056 -2.49709 0.662101 -0.159106 -7.04255 11.5258 -0.749361 3.30019 -19.7767 -0.942828 -4.22654 
-6.61039 96.8237 2.49441 117.732 -86.1686 118.026 -174.394 2.89323 91.8862 -13.6444 7.30379 2.47378 66.2128 3.35048 -1.24094 29.308 -0.248232 1.67731 174.646 2.74699 87.9693 -14.3982 -3.3304 0.294341 66.7045 -3.36075 0.709833 29.4698 -0.218482 0.565489 -0.263031 7.21633 -90.2033 12.4403 -0.619237 -0.334965 0.769456 -0.633379 -0.307385 -21.7662 -0.489938 -0.505583 -1.75351 -0.489943 -0.505588 101.722 -51.7666 -82.8465 28.8919 -6.53568 -6.37276 1.03601 -13.1867 -13.8197 -11.098 -0.296286 -2.16298 -80.8598 -52.1758 92.4016 -33.213 -1.60483 -18.5719 0.309675 35.9372 -3.41319 0.361075 -0.141234 -6.50079 11.5092 -0.823348 2.729 -19.6009 -1.02116 -3.22665 
-6.66355 96.7941 2.44226 119.903 -86.1745 120.201 -174.31 2.83226 91.9452 -13.7392 7.14215 2.44006 66.5197 3.54683 -1.29598 28.7964 -0.16374 1.38578 174.652 2.5344 87.9909 -14.2491 -3.28744 0.260416 67.0166 -3.56808 0.943048 29.1012 -0.133403 0.613733 -0.251467 7.22876 -90.2158 12.4154 -0.602192 -0.36213 0.744509 -0.617546 -0.335278 -21.791 -0.465524 -0.526367 -1.77833 -0.465529 -0.526386 101.759 -51.6218 -82.7898 28.8595 -6.53962 -6.42199 1.02778 -13.3461 -13.7809 -11.0039 -0.291976 -2.17937 -80.5869 -52.629 92.828 -33.0368 -1.82566 -18.5917 0.64372 36.2649 -3.80918 -0.0699194 -0.143088 -6.97128 11.1112 -0.702371 3.17141 -19.4173 -0.941982 -3.68248 
-6.67459 96.8098 2.40887 119.964 -86.1445 120.205 -174.361 2.84118 91.8767 -13.7282 7.46164 2.43031 66.1658 3.41774 -1.02482 29.2137 -0.239951 1.68044 174.473 2.59828 87.854 -14.2855 -3.71054 0.461015 66.8186 -3.56141 0.592108 29.4635 -0.196201 0.316269 -0.255845 7.23671 -90.2 12.3996 -0.603368 -0.330597 0.728729 -0.617337 -0.303715 -21.8069 -0.476121 -0.496652 -1.79421 -0.476117 -0.496643 101.721 -51.6988 -82.8486 28.9516 -6.47389 -6.31754 1.00699 -13.6715 -13.6891 -11.4114 -0.349263 -1.68457 -80.498 -52.8695 92.9703 -33.1252 -2.04858 -18.526 0.507691 35.703 -3.4681 1.20579 -0.16685 -6.81277 10.9991 -0.841078 2.91353 -19.1922 -1.04906 -3.47459 
-6.692 96.814 2.29306 120.946 -85.9579 121.17 -174.456 2.89507 91.8617 -14.0197 7.15014 2.54499 66.4231 3.44309 -1.60795 28.9412 -0.253269 2.02316 174.536 2.54701 87.9228 -14.3656 -3.72458 0.382557 66.6472 -3.6312 0.0625291 29.7837 -0.301631 0.645799 -0.260018 7.26406 -90.1761 12.345 -0.600226 -0.283501 0.674213 -0.612127 -0.256818 -21.8615 -0.487276 -0.450793 -1.84884 -0.48728 -0.450799 101.698 -52.1468 -82.8788 28.6159 -6.65327 -5.93491 1.0672 -13.3541 -13.7884 -11.0065 -0.328736 -1.7794 -80.4822 -52.5941 92.9809 -33.2071 -1.96126 -18.2181 0.665397 35.4133 -3.86395 0.490512 -0.136535 -6.21884 11.0291 -1.00208 2.6201 -18.9688 -1.14193 -3.49865 
-6.70543 96.8078 2.23577 121.852 -85.8436 122.08 -174.424 2.8359 91.8896 -14.0354 7.55982 2.52476 66.2417 3.42923 -1.26991 29.2251 -0.273922 1.96646 174.522 2.38122 87.8943 -14.289 -3.23616 0.336443 67.0272 -3.57699 1.01197 28.9609 -0.0638021 0.226053 -0.244636 7.28619 -90.1896 12.3007 -0.576071 -0.313507 0.629856 -0.589316 -0.287852 -21.9057 -0.455224 -0.472152 -1.89306 -0.455225 -0.472151 101.8 -51.98 -82.7257 28.7456 -6.0931 -5.77482 1.03782 -13.7615 -13.3118 -10.7888 -0.310061 -1.91654 -80.5332 -52.8155 92.9159 -33.1166 -1.9669 -18.0344 0.515766 35.6083 -3.69499 0.36801 -0.13364 -6.18798 11.0539 -1.02515 2.69145 -18.7634 -1.20354 -3.37961 
-6.7182 96.819 2.2009 121.204 -85.7499 121.389 -174.496 2.75773 91.8227 -13.8495 7.15221 2.58453 66.4018 3.46024 -1.55812 28.6847 -0.185991 1.66375 174.423 2.50678 87.8356 -14.483 -3.56433 0.455895 66.8499 -3.61387 0.425383 29.2607 -0.168858 0.590362 -0.240679 7.30004 -90.1812 12.273 -0.564159 -0.298197 0.602184 -0.576729 -0.273085 -21.9334 -0.448458 -0.453968 -1.92073 -0.448454 -0.45397 101.975 -51.9702 -82.4596 28.7302 -6.11188 -5.73574 1.29711 -13.8914 -12.697 -11.093 -0.335162 -1.74034 -80.4262 -52.8862 93.0765 -33.0088 -2.019 -17.9498 0.334567 36.3416 -3.35425 0.105172 -0.132543 -6.30745 10.9296 -1.11837 2.71449 -18.1051 -1.27492 -3.72424 
-6.7347 96.8133 2.16471 121.444 -85.8124 121.734 -174.5 2.92222 91.9377 -14.084 7.17229 2.64638 66.3578 3.30674 -1.82951 29.0945 -0.280871 2.13914 174.43 2.45418 87.9342 -14.1961 -3.94978 0.545648 66.352 -3.56394 -0.128057 29.9829 -0.348066 0.625712 -0.245221 7.30194 -90.1862 12.2692 -0.575604 -0.307042 0.598364 -0.588566 -0.281407 -21.9372 -0.456715 -0.465838 -1.92456 -0.456721 -0.465844 101.827 -51.9764 -82.6844 28.6954 -5.79545 -5.46018 0.923405 -15.3169 -12.4825 -9.74185 -0.355798 -0.976698 -80.2255 -53.0899 93.3801 -32.7939 -2.3074 -17.7252 0.347847 37.3884 -3.20517 -0.361403 -0.125151 -6.34209 10.7751 -1.04734 2.69559 -17.6884 -1.21054 -3.72387 
-6.75504 96.8353 2.174 122.832 -85.8775 122.854 -174.545 2.59922 91.6744 -13.6004 7.34087 2.54008 66.0623 3.38043 -1.24817 29.1618 -0.279057 2.07074 174.29 2.62561 87.625 -14.6644 -3.67617 0.518434 66.8738 -3.55848 0.521385 29.4598 -0.215921 0.577365 -0.241507 7.33914 -90.1647 12.195 -0.557949 -0.266518 0.524134 -0.569134 -0.241711 -22.0115 -0.452061 -0.421887 -1.99883 -0.452053 -0.421881 101.732 -51.8106 -82.8295 28.7722 -5.67939 -5.37379 0.916797 -15.1625 -12.5201 -9.81568 -0.338807 -1.22097 -80.2466 -53.204 93.3539 -32.6129 -2.18898 -17.5439 0.224077 36.4736 -3.25538 0.159208 -0.146847 -6.92469 11.1316 -1.07343 3.01373 -17.1377 -1.29445 -4.09204 
